<?xml version="1.0" encoding="iso-8859-1"?>
<!-- Uploaded to: SVG Repo, www.svgrepo.com, Generator: SVG Repo Mixer Tools -->
<svg height="800px" width="800px" version="1.1" id="Layer_1" xmlns="http://www.w3.org/2000/svg" xmlns:xlink="http://www.w3.org/1999/xlink" 
	 viewBox="0 0 511.546 511.546" xml:space="preserve">
<g transform="translate(1 1)">
	<polygon style="fill:#FFDD09;" points="24.146,280.373 126.546,280.373 126.546,212.106 24.146,212.106 	"/>
	<polygon style="fill:#FFFFFF;" points="24.146,280.373 41.213,280.373 41.213,212.106 24.146,212.106 	"/>
	<g>
		<polygon style="fill:#FFDD09;" points="100.946,212.106 203.346,212.106 203.346,143.84 100.946,143.84 		"/>
		<polygon style="fill:#FFDD09;" points="126.546,280.373 228.946,280.373 228.946,212.106 126.546,212.106 		"/>
	</g>
	<polygon style="fill:#FFFFFF;" points="100.946,212.106 118.013,212.106 118.013,143.84 100.946,143.84 	"/>
	<polygon style="fill:#FFDD09;" points="160.68,143.84 263.08,143.84 263.08,75.573 160.68,75.573 	"/>
	<polygon style="fill:#FD9808;" points="246.013,143.84 263.08,143.84 263.08,75.573 246.013,75.573 	"/>
	<polygon style="fill:#FFDD09;" points="203.346,212.106 305.746,212.106 305.746,143.84 203.346,143.84 	"/>
	<polygon style="fill:#FD9808;" points="288.68,212.106 305.746,212.106 305.746,143.84 288.68,143.84 	"/>
	<polygon style="fill:#FFDD09;" points="228.946,280.373 331.346,280.373 331.346,212.106 228.946,212.106 	"/>
	<polygon style="fill:#FD9808;" points="314.28,280.373 331.346,280.373 331.346,212.106 314.28,212.106 	"/>
	<g>
		<polygon style="fill:#FFDD09;" points="493.48,280.373 374.013,280.373 374.013,195.04 459.346,195.04 		"/>
		<polygon style="fill:#FFDD09;" points="391.08,195.04 442.28,195.04 442.28,152.373 391.08,152.373 		"/>
	</g>
	<polygon style="fill:#54C9FD;" points="469.586,220.64 433.746,220.64 433.746,254.773 483.24,254.773 	"/>
	<path style="fill:#FFDD09;" d="M406.44,433.973H61.693c-6.827,0-11.947-5.12-11.947-11.947V399.84l-40.96-96.427
		c-5.12-11.093,3.413-23.04,15.36-23.04H493.48c5.12,0,8.533,3.413,8.533,8.533v64.853c0,2.56-0.853,5.12-2.56,5.973l-75.093,67.413
		C419.24,431.413,413.266,433.973,406.44,433.973"/>
	<path style="fill:#FFFFFF;" d="M75.346,422.026V399.84l-40.96-96.427c-5.12-11.093,2.56-23.04,15.36-23.04h-25.6
		c-11.947,0-20.48,11.947-15.36,23.04l40.96,96.427v22.187c0,6.827,5.12,11.947,11.947,11.947h25.6
		C80.466,433.973,75.346,428.853,75.346,422.026"/>
	<path style="fill:#FD9808;" d="M493.48,280.373h-25.6c5.12,0,8.533,3.413,8.533,8.533v64.853c0,2.56-0.853,5.12-2.56,5.973
		l-75.093,67.413c-5.12,4.267-11.093,6.827-17.067,6.827h25.6c5.973,0,12.8-2.56,17.067-6.827l75.093-67.413
		c1.707-1.707,2.56-4.267,2.56-5.973v-64.853C502.013,283.786,498.6,280.373,493.48,280.373"/>
	<g>
		<path style="fill:#54C9FD;" d="M280.146,340.106c0-14.507-11.093-25.6-25.6-25.6s-25.6,11.093-25.6,25.6s11.093,25.6,25.6,25.6
			S280.146,354.613,280.146,340.106"/>
		<path style="fill:#54C9FD;" d="M425.213,340.106c0-14.507-11.093-25.6-25.6-25.6c-14.507,0-25.6,11.093-25.6,25.6
			s11.093,25.6,25.6,25.6C414.12,365.706,425.213,354.613,425.213,340.106"/>
		<path style="fill:#54C9FD;" d="M135.08,340.106c0-14.507-11.093-25.6-25.6-25.6s-25.6,11.093-25.6,25.6s11.093,25.6,25.6,25.6
			S135.08,354.613,135.08,340.106"/>
	</g>
	<path d="M406.44,442.506H61.693c-11.093,0-20.48-9.387-20.48-20.48v-20.48l-40.107-94.72c-3.413-7.68-2.56-17.067,1.707-23.893
		c5.12-6.827,12.8-11.093,21.333-11.093H493.48c9.387,0,17.067,7.68,17.067,17.067v64.853c0,5.12-1.707,9.387-5.973,12.8
		l-75.093,67.413C423.506,439.093,414.973,442.506,406.44,442.506z M24.146,288.906c-2.56,0-5.12,1.707-6.827,3.413
		c-1.707,2.56-1.707,5.12-0.853,7.68l40.96,96.427c0.853,0.853,0.853,2.56,0.853,3.413v22.187c0,1.707,1.707,3.413,3.413,3.413
		h345.6c4.267,0,8.533-1.707,11.093-4.267l75.093-67.413v-64.853H24.146z"/>
	<path d="M493.48,288.906H374.013c-5.12,0-8.533-3.413-8.533-8.533V195.04c0-5.12,3.413-8.533,8.533-8.533h85.333
		c3.413,0,6.827,1.707,7.68,5.12l34.133,85.333c0.853,2.56,0.853,5.973-0.853,7.68C498.6,287.2,496.04,288.906,493.48,288.906z
		 M382.546,271.84h98.133l-27.307-68.267h-70.827V271.84z"/>
	<path d="M442.28,203.573h-51.2c-5.12,0-8.533-3.413-8.533-8.533v-42.667c0-5.12,3.413-8.533,8.533-8.533h51.2
		c5.12,0,8.533,3.413,8.533,8.533v42.667C450.813,200.16,447.4,203.573,442.28,203.573z M399.613,186.506h34.133v-25.6h-34.133
		V186.506z"/>
	<path d="M126.546,288.906h-102.4c-5.12,0-8.533-3.413-8.533-8.533v-68.267c0-5.12,3.413-8.533,8.533-8.533h102.4
		c5.12,0,8.533,3.413,8.533,8.533v68.267C135.08,285.493,131.666,288.906,126.546,288.906z M32.68,271.84h85.333v-51.2H32.68V271.84
		z"/>
	<path d="M228.946,288.906h-102.4c-5.12,0-8.533-3.413-8.533-8.533v-68.267c0-5.12,3.413-8.533,8.533-8.533h102.4
		c5.12,0,8.533,3.413,8.533,8.533v68.267C237.48,285.493,234.066,288.906,228.946,288.906z M135.08,271.84h85.333v-51.2H135.08
		V271.84z"/>
	<path d="M331.346,288.906h-102.4c-5.12,0-8.533-3.413-8.533-8.533v-68.267c0-5.12,3.413-8.533,8.533-8.533h102.4
		c5.12,0,8.533,3.413,8.533,8.533v68.267C339.88,285.493,336.466,288.906,331.346,288.906z M237.48,271.84h85.333v-51.2H237.48
		V271.84z"/>
	<path d="M305.746,220.64h-102.4c-5.12,0-8.533-3.413-8.533-8.533V143.84c0-5.12,3.413-8.533,8.533-8.533h102.4
		c5.12,0,8.533,3.413,8.533,8.533v68.267C314.28,217.226,310.866,220.64,305.746,220.64z M211.88,203.573h85.333v-51.2H211.88
		V203.573z"/>
	<path d="M263.08,152.373h-102.4c-5.12,0-8.533-3.413-8.533-8.533V75.573c0-5.12,3.413-8.533,8.533-8.533h102.4
		c5.12,0,8.533,3.413,8.533,8.533v68.267C271.613,148.96,268.2,152.373,263.08,152.373z M169.213,135.306h85.333v-51.2h-85.333
		V135.306z"/>
	<path d="M203.346,220.64h-102.4c-5.12,0-8.533-3.413-8.533-8.533V143.84c0-5.12,3.413-8.533,8.533-8.533h102.4
		c5.12,0,8.533,3.413,8.533,8.533v68.267C211.88,217.226,208.466,220.64,203.346,220.64z M109.48,203.573h85.333v-51.2H109.48
		V203.573z"/>
	<path d="M406.44,442.506H61.693c-11.093,0-20.48-9.387-20.48-20.48V399.84c0-5.12,3.413-8.533,8.533-8.533h404.48
		c3.413,0,6.827,2.56,7.68,5.12c0.853,2.56,0,6.827-2.56,9.387l-29.867,28.16C423.506,439.093,414.973,442.506,406.44,442.506z
		 M58.28,408.373v13.653c0,1.707,1.707,3.413,3.413,3.413h345.6c4.267,0,8.533-1.707,11.093-4.267l14.507-12.8H58.28z"/>
	<path d="M483.24,263.306h-49.493c-5.12,0-8.533-3.413-8.533-8.533V220.64c0-5.12,3.413-8.533,8.533-8.533h35.84
		c3.413,0,6.827,1.707,7.68,5.12l13.653,34.133c0.853,2.56,0.853,5.973-0.853,7.68C488.36,261.6,485.8,263.306,483.24,263.306z
		 M442.28,246.24h28.16l-6.827-17.067H442.28V246.24z"/>
	<path d="M254.546,374.24c-18.773,0-34.133-15.36-34.133-34.133s15.36-34.133,34.133-34.133s34.133,15.36,34.133,34.133
		S273.32,374.24,254.546,374.24z M254.546,323.04c-9.387,0-17.067,7.68-17.067,17.067c0,9.387,7.68,17.067,17.067,17.067
		s17.067-7.68,17.067-17.067S263.933,323.04,254.546,323.04z"/>
	<path d="M399.613,374.24c-18.773,0-34.133-15.36-34.133-34.133s15.36-34.133,34.133-34.133c18.773,0,34.133,15.36,34.133,34.133
		S418.386,374.24,399.613,374.24z M399.613,323.04c-9.387,0-17.067,7.68-17.067,17.067c0,9.387,7.68,17.067,17.067,17.067
		s17.067-7.68,17.067-17.067S409,323.04,399.613,323.04z"/>
	<path d="M109.48,374.24c-18.773,0-34.133-15.36-34.133-34.133s15.36-34.133,34.133-34.133s34.133,15.36,34.133,34.133
		S128.253,374.24,109.48,374.24z M109.48,323.04c-9.387,0-17.067,7.68-17.067,17.067c0,9.387,7.68,17.067,17.067,17.067
		s17.067-7.68,17.067-17.067S118.866,323.04,109.48,323.04z"/>
	<path d="M58.28,246.24c-5.12,0-8.533-3.413-8.533-8.533v-25.6c0-5.12,3.413-8.533,8.533-8.533s8.533,3.413,8.533,8.533v25.6
		C66.813,242.826,63.4,246.24,58.28,246.24z"/>
	<path d="M92.413,246.24c-5.12,0-8.533-3.413-8.533-8.533v-25.6c0-5.12,3.413-8.533,8.533-8.533s8.533,3.413,8.533,8.533v25.6
		C100.946,242.826,97.533,246.24,92.413,246.24z"/>
	<path d="M160.68,246.24c-5.12,0-8.533-3.413-8.533-8.533v-25.6c0-5.12,3.413-8.533,8.533-8.533s8.533,3.413,8.533,8.533v25.6
		C169.213,242.826,165.8,246.24,160.68,246.24z"/>
	<path d="M194.813,246.24c-5.12,0-8.533-3.413-8.533-8.533v-25.6c0-5.12,3.413-8.533,8.533-8.533c5.12,0,8.533,3.413,8.533,8.533
		v25.6C203.346,242.826,199.933,246.24,194.813,246.24z"/>
	<path d="M263.08,246.24c-5.12,0-8.533-3.413-8.533-8.533v-25.6c0-5.12,3.413-8.533,8.533-8.533s8.533,3.413,8.533,8.533v25.6
		C271.613,242.826,268.2,246.24,263.08,246.24z"/>
	<path d="M297.213,246.24c-5.12,0-8.533-3.413-8.533-8.533v-25.6c0-5.12,3.413-8.533,8.533-8.533s8.533,3.413,8.533,8.533v25.6
		C305.746,242.826,302.333,246.24,297.213,246.24z"/>
	<path d="M237.48,177.973c-5.12,0-8.533-3.413-8.533-8.533v-25.6c0-5.12,3.413-8.533,8.533-8.533c5.12,0,8.533,3.413,8.533,8.533
		v25.6C246.013,174.56,242.6,177.973,237.48,177.973z"/>
	<path d="M271.613,177.973c-5.12,0-8.533-3.413-8.533-8.533v-25.6c0-5.12,3.413-8.533,8.533-8.533s8.533,3.413,8.533,8.533v25.6
		C280.146,174.56,276.733,177.973,271.613,177.973z"/>
	<path d="M135.08,177.973c-5.12,0-8.533-3.413-8.533-8.533v-25.6c0-5.12,3.413-8.533,8.533-8.533c5.12,0,8.533,3.413,8.533,8.533
		v25.6C143.613,174.56,140.2,177.973,135.08,177.973z"/>
	<path d="M169.213,177.973c-5.12,0-8.533-3.413-8.533-8.533v-25.6c0-5.12,3.413-8.533,8.533-8.533c5.12,0,8.533,3.413,8.533,8.533
		v25.6C177.746,174.56,174.333,177.973,169.213,177.973z"/>
	<path d="M194.813,109.706c-5.12,0-8.533-3.413-8.533-8.533v-25.6c0-5.12,3.413-8.533,8.533-8.533c5.12,0,8.533,3.413,8.533,8.533
		v25.6C203.346,106.293,199.933,109.706,194.813,109.706z"/>
	<path d="M228.946,109.706c-5.12,0-8.533-3.413-8.533-8.533v-25.6c0-5.12,3.413-8.533,8.533-8.533c5.12,0,8.533,3.413,8.533,8.533
		v25.6C237.48,106.293,234.066,109.706,228.946,109.706z"/>
</g>
</svg>