<?xml version="1.0" encoding="iso-8859-1"?>
<!-- Uploaded to: SVG Repo, www.svgrepo.com, Generator: SVG Repo Mixer Tools -->
<svg height="800px" width="800px" version="1.1" id="Layer_1" xmlns="http://www.w3.org/2000/svg" xmlns:xlink="http://www.w3.org/1999/xlink" 
	 viewBox="0 0 392.533 392.533" xml:space="preserve">
<path style="fill:#FFFFFF;" d="M265.826,257.552c0-26.505,21.527-48.162,48.162-48.162h34.974v-53.915
	c0-6.012-4.849-10.925-10.925-10.925H32.711c-6.012,0-10.925,4.848-10.925,10.925v204.154c0,6.012,4.848,10.925,10.925,10.925
	h305.325c6.012,0,10.925-4.848,10.925-10.925v-53.915h-34.974C287.354,305.713,265.826,284.121,265.826,257.552z"/>
<path style="fill:#FFC10D;" d="M43.572,166.271v14.933h60.897c6.012,0,10.925,4.848,10.925,10.925
	c0,6.012-4.848,10.925-10.925,10.925H43.572v25.794h33.875c6.012,0,10.925,4.848,10.925,10.925s-4.848,10.925-10.925,10.925H43.572
	v98.069h283.539V166.271H43.572z"/>
<polygon style="fill:#56ACE0;" points="94.513,122.764 296.081,122.764 195.362,21.915 "/>
<path style="fill:#FFFFFF;" d="M370.747,283.863V231.24h-56.824c-14.545,0-26.376,11.83-26.376,26.376
	c0,14.545,11.83,26.376,26.376,26.376h56.824V283.863z"/>
<g>
	<path style="fill:#194F82;" d="M370.747,209.455v-53.915c0-18.036-14.675-32.711-32.711-32.711h-11.055L210.747,6.594
		c-4.073-4.073-9.568-6.4-15.451-6.4c-5.818,0-11.313,2.263-15.451,6.4l-116.17,116.17H32.776C14.675,122.764,0,137.438,0,155.475
		v204.154c0,18.036,14.675,32.711,32.711,32.711h305.325c18.036,0,32.711-14.675,32.711-32.711v-53.915
		c12.024,0,21.786-9.826,21.786-21.786v-52.622C392.533,219.216,382.707,209.455,370.747,209.455z M348.962,359.628
		c0,6.012-4.849,10.925-10.925,10.925H32.711c-6.012,0-10.925-4.849-10.925-10.925V155.475c0-6.012,4.848-10.925,10.925-10.925
		h305.325c6.012,0,10.925,4.848,10.925,10.925v53.915h-34.974c-26.505,0-48.162,21.527-48.162,48.162
		c0,26.505,21.527,48.162,48.162,48.162h34.974V359.628L348.962,359.628z M287.612,257.552c0-14.545,11.83-26.376,26.376-26.376
		h56.824v52.622h-56.889C299.442,283.863,287.612,272.097,287.612,257.552z M94.513,122.764L195.362,21.915L296.21,122.764H94.513z"
		/>
	<circle style="fill:#194F82;" cx="313.923" cy="257.552" r="10.15"/>
	<path style="fill:#194F82;" d="M147.329,320.065H68.137c-6.012,0-10.925,4.848-10.925,10.925c0,6.012,4.848,10.925,10.925,10.925
		h79.192c6.012,0,10.925-4.848,10.925-10.925S153.406,320.065,147.329,320.065z"/>
</g>
</svg>